<mxfile host="app.diagrams.net" modified="2021-05-19T02:30:15.467Z" agent="5.0 (Windows NT 10.0; Win64; x64) AppleWebKit/537.36 (KHTML, like Gecko) Chrome/90.0.4430.212 Safari/537.36" etag="Q_G2IrfD-q9bW9LJUYFd" version="14.6.13" type="github">
  <diagram name="Page-1" id="74e2e168-ea6b-b213-b513-2b3c1d86103e">
    <mxGraphModel dx="1447" dy="750" grid="1" gridSize="10" guides="1" tooltips="1" connect="1" arrows="1" fold="1" page="1" pageScale="1" pageWidth="1100" pageHeight="850" background="#ffffff" math="0" shadow="0">
      <root>
        <mxCell id="0" />
        <mxCell id="1" parent="0" />
        <mxCell id="77e6c97f196da883-1" value="Pool" style="swimlane;html=1;childLayout=stackLayout;startSize=20;rounded=0;shadow=0;labelBackgroundColor=none;strokeWidth=1;fontFamily=Verdana;fontSize=8;align=center;" parent="1" vertex="1">
          <mxGeometry x="90" y="30" width="960" height="750" as="geometry" />
        </mxCell>
        <mxCell id="77e6c97f196da883-2" value="&#xa;&#xa;&lt;span style=&quot;color: rgb(0, 0, 0); font-family: helvetica; font-size: 12px; font-style: normal; font-weight: 700; letter-spacing: normal; text-align: center; text-indent: 0px; text-transform: none; word-spacing: 0px; background-color: rgb(248, 249, 250); display: inline; float: none;&quot;&gt;MongoDB (Server)&lt;/span&gt;&#xa;&#xa;" style="swimlane;html=1;startSize=20;" parent="77e6c97f196da883-1" vertex="1">
          <mxGeometry y="20" width="160" height="730" as="geometry" />
        </mxCell>
        <mxCell id="j-q2rKWFq1lKvA7q3Dqb-40" value="" style="shape=cylinder3;whiteSpace=wrap;html=1;boundedLbl=1;backgroundOutline=1;size=15;fillColor=#ffffff;align=center;" vertex="1" parent="77e6c97f196da883-2">
          <mxGeometry x="50" y="315" width="60" height="80" as="geometry" />
        </mxCell>
        <mxCell id="77e6c97f196da883-6" value="Node Js (Server)" style="swimlane;html=1;startSize=20;" parent="77e6c97f196da883-1" vertex="1">
          <mxGeometry x="160" y="20" width="160" height="730" as="geometry" />
        </mxCell>
        <mxCell id="j-q2rKWFq1lKvA7q3Dqb-39" value="Simpan Data &lt;br&gt;Holding Register" style="shape=parallelogram;perimeter=parallelogramPerimeter;whiteSpace=wrap;html=1;fixedSize=1;fillColor=#ffffff;align=center;" vertex="1" parent="77e6c97f196da883-6">
          <mxGeometry x="20" y="325" width="120" height="60" as="geometry" />
        </mxCell>
        <mxCell id="77e6c97f196da883-3" value="Python (Modbus)" style="swimlane;html=1;startSize=20;" parent="77e6c97f196da883-1" vertex="1">
          <mxGeometry x="320" y="20" width="160" height="730" as="geometry" />
        </mxCell>
        <mxCell id="j-q2rKWFq1lKvA7q3Dqb-36" value="Kirim Data &lt;br&gt;Holding Register" style="shape=parallelogram;perimeter=parallelogramPerimeter;whiteSpace=wrap;html=1;fixedSize=1;fillColor=#ffffff;align=center;" vertex="1" parent="77e6c97f196da883-3">
          <mxGeometry x="20" y="325" width="120" height="60" as="geometry" />
        </mxCell>
        <mxCell id="j-q2rKWFq1lKvA7q3Dqb-11" value="Start" style="ellipse;whiteSpace=wrap;html=1;" vertex="1" parent="77e6c97f196da883-3">
          <mxGeometry x="55" y="40" width="50" height="30" as="geometry" />
        </mxCell>
        <mxCell id="77e6c97f196da883-4" value="Keyence (PLC)" style="swimlane;html=1;startSize=20;verticalAlign=middle;" parent="77e6c97f196da883-1" vertex="1">
          <mxGeometry x="480" y="20" width="160" height="730" as="geometry" />
        </mxCell>
        <mxCell id="j-q2rKWFq1lKvA7q3Dqb-24" style="edgeStyle=orthogonalEdgeStyle;rounded=0;orthogonalLoop=1;jettySize=auto;html=1;exitX=0.5;exitY=1;exitDx=0;exitDy=0;" edge="1" parent="77e6c97f196da883-4" source="j-q2rKWFq1lKvA7q3Dqb-21" target="j-q2rKWFq1lKvA7q3Dqb-22">
          <mxGeometry relative="1" as="geometry" />
        </mxCell>
        <mxCell id="j-q2rKWFq1lKvA7q3Dqb-21" value="Simpan Data Ke holding register" style="shape=parallelogram;perimeter=parallelogramPerimeter;whiteSpace=wrap;html=1;fixedSize=1;fillColor=#ffffff;align=center;" vertex="1" parent="77e6c97f196da883-4">
          <mxGeometry x="20" y="240" width="120" height="60" as="geometry" />
        </mxCell>
        <mxCell id="j-q2rKWFq1lKvA7q3Dqb-22" value="Holding Register" style="shape=cylinder3;whiteSpace=wrap;html=1;boundedLbl=1;backgroundOutline=1;size=15;fillColor=#ffffff;align=center;" vertex="1" parent="77e6c97f196da883-4">
          <mxGeometry x="50" y="335" width="60" height="80" as="geometry" />
        </mxCell>
        <mxCell id="j-q2rKWFq1lKvA7q3Dqb-30" value="Modbus Holding Register" style="whiteSpace=wrap;html=1;" vertex="1" parent="77e6c97f196da883-4">
          <mxGeometry x="20" y="478" width="120" height="60" as="geometry" />
        </mxCell>
        <mxCell id="j-q2rKWFq1lKvA7q3Dqb-32" value="" style="endArrow=classic;startArrow=classic;html=1;exitX=0.5;exitY=0;exitDx=0;exitDy=0;entryX=0.5;entryY=1;entryDx=0;entryDy=0;entryPerimeter=0;" edge="1" parent="77e6c97f196da883-4" source="j-q2rKWFq1lKvA7q3Dqb-30" target="j-q2rKWFq1lKvA7q3Dqb-22">
          <mxGeometry width="50" height="50" relative="1" as="geometry">
            <mxPoint x="80" y="450" as="sourcePoint" />
            <mxPoint x="80" y="410" as="targetPoint" />
          </mxGeometry>
        </mxCell>
        <mxCell id="77e6c97f196da883-5" value="Machine (PLC)" style="swimlane;html=1;startSize=20;" parent="77e6c97f196da883-1" vertex="1">
          <mxGeometry x="640" y="20" width="160" height="730" as="geometry" />
        </mxCell>
        <mxCell id="j-q2rKWFq1lKvA7q3Dqb-17" value="1. Counter&lt;br&gt;2. Running Hour" style="strokeWidth=2;html=1;shape=mxgraph.flowchart.database;whiteSpace=wrap;fillColor=#ffffff;align=left;" vertex="1" parent="77e6c97f196da883-5">
          <mxGeometry x="16.5" y="95" width="127" height="120" as="geometry" />
        </mxCell>
        <mxCell id="j-q2rKWFq1lKvA7q3Dqb-14" value="Display" style="swimlane;html=1;startSize=20;" vertex="1" parent="77e6c97f196da883-1">
          <mxGeometry x="800" y="20" width="160" height="730" as="geometry" />
        </mxCell>
        <mxCell id="j-q2rKWFq1lKvA7q3Dqb-41" style="edgeStyle=orthogonalEdgeStyle;rounded=0;orthogonalLoop=1;jettySize=auto;html=1;exitX=0;exitY=0.5;exitDx=0;exitDy=0;" edge="1" parent="77e6c97f196da883-1" source="j-q2rKWFq1lKvA7q3Dqb-36" target="j-q2rKWFq1lKvA7q3Dqb-39">
          <mxGeometry relative="1" as="geometry" />
        </mxCell>
        <mxCell id="j-q2rKWFq1lKvA7q3Dqb-42" style="edgeStyle=orthogonalEdgeStyle;rounded=0;orthogonalLoop=1;jettySize=auto;html=1;exitX=0;exitY=0.5;exitDx=0;exitDy=0;" edge="1" parent="77e6c97f196da883-1" source="j-q2rKWFq1lKvA7q3Dqb-39" target="j-q2rKWFq1lKvA7q3Dqb-40">
          <mxGeometry relative="1" as="geometry" />
        </mxCell>
        <mxCell id="j-q2rKWFq1lKvA7q3Dqb-13" value="" style="edgeStyle=orthogonalEdgeStyle;rounded=0;orthogonalLoop=1;jettySize=auto;html=1;entryX=0.5;entryY=0;entryDx=0;entryDy=0;" edge="1" parent="1" source="j-q2rKWFq1lKvA7q3Dqb-11" target="j-q2rKWFq1lKvA7q3Dqb-28">
          <mxGeometry relative="1" as="geometry">
            <mxPoint x="330" y="175" as="targetPoint" />
          </mxGeometry>
        </mxCell>
        <mxCell id="j-q2rKWFq1lKvA7q3Dqb-23" style="edgeStyle=orthogonalEdgeStyle;rounded=0;orthogonalLoop=1;jettySize=auto;html=1;exitX=0.5;exitY=1;exitDx=0;exitDy=0;" edge="1" parent="1" source="j-q2rKWFq1lKvA7q3Dqb-18" target="j-q2rKWFq1lKvA7q3Dqb-21">
          <mxGeometry relative="1" as="geometry" />
        </mxCell>
        <mxCell id="j-q2rKWFq1lKvA7q3Dqb-18" value="Mengambil Data Mesin" style="whiteSpace=wrap;html=1;" vertex="1" parent="1">
          <mxGeometry x="590" y="175" width="120" height="60" as="geometry" />
        </mxCell>
        <mxCell id="j-q2rKWFq1lKvA7q3Dqb-19" value="" style="endArrow=classic;startArrow=classic;html=1;entryX=0;entryY=0.5;entryDx=0;entryDy=0;entryPerimeter=0;exitX=1;exitY=0.5;exitDx=0;exitDy=0;" edge="1" parent="1" source="j-q2rKWFq1lKvA7q3Dqb-18" target="j-q2rKWFq1lKvA7q3Dqb-17">
          <mxGeometry width="50" height="50" relative="1" as="geometry">
            <mxPoint x="520" y="120" as="sourcePoint" />
            <mxPoint x="570" y="70" as="targetPoint" />
          </mxGeometry>
        </mxCell>
        <mxCell id="j-q2rKWFq1lKvA7q3Dqb-35" style="edgeStyle=orthogonalEdgeStyle;rounded=0;orthogonalLoop=1;jettySize=auto;html=1;exitX=0.5;exitY=1;exitDx=0;exitDy=0;entryX=0.5;entryY=0;entryDx=0;entryDy=0;" edge="1" parent="1" source="j-q2rKWFq1lKvA7q3Dqb-28" target="j-q2rKWFq1lKvA7q3Dqb-29">
          <mxGeometry relative="1" as="geometry" />
        </mxCell>
        <mxCell id="j-q2rKWFq1lKvA7q3Dqb-28" value="Running Script Modbus Read" style="rounded=0;whiteSpace=wrap;html=1;fillColor=#ffffff;align=center;" vertex="1" parent="1">
          <mxGeometry x="430" y="175" width="120" height="60" as="geometry" />
        </mxCell>
        <mxCell id="j-q2rKWFq1lKvA7q3Dqb-37" style="edgeStyle=orthogonalEdgeStyle;rounded=0;orthogonalLoop=1;jettySize=auto;html=1;exitX=0.5;exitY=1;exitDx=0;exitDy=0;" edge="1" parent="1" source="j-q2rKWFq1lKvA7q3Dqb-29" target="j-q2rKWFq1lKvA7q3Dqb-36">
          <mxGeometry relative="1" as="geometry" />
        </mxCell>
        <mxCell id="j-q2rKWFq1lKvA7q3Dqb-29" value="Ambil Data &lt;br&gt;Holding Register" style="shape=parallelogram;perimeter=parallelogramPerimeter;whiteSpace=wrap;html=1;fixedSize=1;fillColor=#ffffff;align=center;" vertex="1" parent="1">
          <mxGeometry x="430" y="290" width="120" height="60" as="geometry" />
        </mxCell>
        <mxCell id="j-q2rKWFq1lKvA7q3Dqb-34" value="" style="endArrow=classic;startArrow=classic;html=1;exitX=0.908;exitY=0.598;exitDx=0;exitDy=0;exitPerimeter=0;entryX=0;entryY=0.5;entryDx=0;entryDy=0;" edge="1" parent="1" source="j-q2rKWFq1lKvA7q3Dqb-29" target="j-q2rKWFq1lKvA7q3Dqb-30">
          <mxGeometry width="50" height="50" relative="1" as="geometry">
            <mxPoint x="520" y="340" as="sourcePoint" />
            <mxPoint x="590" y="410" as="targetPoint" />
            <Array as="points">
              <mxPoint x="560" y="326" />
              <mxPoint x="560" y="560" />
            </Array>
          </mxGeometry>
        </mxCell>
      </root>
    </mxGraphModel>
  </diagram>
</mxfile>
